<svg version="1.1" id="Layer_1" xmlns="http://www.w3.org/2000/svg" xmlns:xlink="http://www.w3.org/1999/xlink" x="0px" y="0px"
	 width="100%" viewBox="0 0 753 245" enable-background="new 0 0 753 245" xml:space="preserve">
<path fill="#FEFFFF" opacity="1.000000" stroke="none" 
	d="
M518.000000,246.000000 
	C345.333344,246.000000 173.166702,246.000000 1.000046,246.000000 
	C1.000031,164.333359 1.000031,82.666725 1.000015,1.000068 
	C251.999939,1.000045 502.999878,1.000045 753.999878,1.000023 
	C753.999878,82.666595 753.999878,164.333191 753.999939,245.999893 
	C675.500000,246.000000 597.000000,246.000000 518.000000,246.000000 
M80.511696,165.218994 
	C70.646370,163.711243 62.105980,159.528442 55.128105,152.372757 
	C40.960835,137.844482 37.808399,112.366776 47.725430,93.201363 
	C57.085304,75.112686 77.252480,65.263145 98.099266,68.407135 
	C111.498390,70.427910 122.655312,76.079567 129.341461,88.267242 
	C138.331787,104.655075 137.927704,121.763054 131.866394,138.984772 
	C131.432495,140.217575 129.760284,141.761841 128.568588,141.848297 
	C123.962685,142.182480 119.318138,141.984055 114.157455,141.984055 
	C114.157455,123.035522 114.157455,104.638184 114.157455,85.826660 
	C110.037735,86.926765 105.541077,83.741791 102.959579,88.850655 
	C101.273613,88.197861 99.592155,87.498901 97.878464,86.890770 
	C82.504013,81.434784 67.498291,88.395706 61.897732,103.745270 
	C58.781239,112.286674 58.881001,121.085793 60.880154,129.840530 
	C65.185181,148.693207 82.760101,155.706039 99.050430,145.163986 
	C100.552849,144.191727 102.043427,143.201157 104.156082,141.814377 
	C103.825745,149.161713 108.140511,149.372513 113.276314,149.102066 
	C119.424438,148.778305 125.611557,149.206375 131.761765,148.903030 
	C133.388748,148.822769 135.536591,147.649277 136.439529,146.303162 
	C148.599884,128.174362 147.879501,98.250641 135.028992,80.039803 
	C123.086227,63.115353 99.452774,55.169659 76.932228,60.507366 
	C46.866024,67.633507 28.197186,96.262833 33.447365,127.263908 
	C37.371712,150.436295 50.225739,165.971451 72.958015,172.740005 
	C83.705635,175.940125 94.713448,175.322083 105.686989,173.966156 
	C113.619362,172.986023 113.766510,172.784546 113.245354,164.802414 
	C113.217018,164.368439 112.881310,163.954529 113.211311,164.679611 
	C102.180946,164.925018 91.774826,165.156540 80.511696,165.218994 
M290.843689,111.458206 
	C288.521179,111.631432 286.151733,111.568947 283.884644,112.020493 
	C275.941193,113.602623 267.708344,114.485458 260.191528,117.270103 
	C250.221710,120.963478 245.887161,130.074448 247.053864,141.148773 
	C248.086960,150.954895 254.946167,158.875412 264.645905,161.139313 
	C274.432129,163.423386 283.421112,161.105957 291.811768,155.922256 
	C293.447388,154.911774 295.037476,153.827576 297.091309,152.488800 
	C297.430481,155.448074 297.683441,157.655090 297.922028,159.736816 
	C302.115112,159.736816 305.875702,159.736816 309.753967,159.736816 
	C309.753967,141.514297 310.250793,123.558823 309.572327,105.647865 
	C309.148224,94.451630 302.657501,88.012383 291.431641,85.436249 
	C278.793976,82.536140 266.346710,84.239807 253.932526,87.419678 
	C253.932526,91.634941 253.932526,95.652420 253.932526,99.953987 
	C264.830231,96.158226 275.431183,93.494072 286.589325,95.802124 
	C294.674011,97.474434 297.863831,102.028610 297.069550,110.880821 
	C295.350281,111.040802 293.556519,111.207710 290.843689,111.458206 
M479.149750,89.243965 
	C457.026245,76.599510 432.443115,86.733604 427.461334,111.039314 
	C426.089142,117.733925 426.157837,124.982094 426.956665,131.813583 
	C429.100922,150.151062 441.403229,161.366135 458.962097,161.973434 
	C476.719269,162.587601 489.506409,152.361038 493.235901,134.365570 
	C493.939392,130.971054 494.291290,127.449471 494.330627,123.981133 
	C494.484009,110.449219 491.431580,98.203239 479.149750,89.243965 
M356.505005,85.996056 
	C351.750641,85.996056 346.996307,85.996056 342.351807,85.996056 
	C342.351807,90.060287 342.351807,93.329445 342.351807,97.238663 
	C356.254395,97.238663 369.889648,97.238663 384.270233,97.238663 
	C370.692871,113.885651 357.914948,129.907150 344.687592,145.548599 
	C340.847229,150.089859 340.751770,154.591980 341.568726,159.753113 
	C361.451141,159.753113 381.041534,159.753113 400.732849,159.753113 
	C400.732849,156.091339 400.732849,152.705215 400.732849,148.777878 
	C386.078918,148.777878 371.736053,148.777878 356.637238,148.777878 
	C370.242767,131.851151 383.124939,115.510498 396.412354,99.506355 
	C399.886932,95.321449 400.566406,91.222290 399.587524,85.996056 
	C385.440918,85.996056 371.472321,85.996056 356.505005,85.996056 
M183.255264,90.716019 
	C183.255264,113.741211 183.255264,136.766403 183.255264,159.734589 
	C187.854797,159.734589 191.611160,159.734589 195.814224,159.734589 
	C195.814224,157.810532 195.814224,156.184723 195.814224,154.558914 
	C195.814285,140.254074 195.917252,125.947945 195.738571,111.645325 
	C195.696457,108.274963 196.776062,106.235397 199.521133,104.272072 
	C208.546875,97.816650 218.474228,96.841209 229.300232,99.087463 
	C229.300232,94.873978 229.300232,91.117706 229.300232,87.022057 
	C216.582169,83.575722 206.116791,88.670311 195.608246,97.069672 
	C195.608246,92.462120 195.608246,89.382202 195.608246,85.980629 
	C192.322983,85.980629 189.501251,86.163628 186.714081,85.931580 
	C183.638885,85.675552 182.941910,87.175331 183.255264,90.716019 
M565.363708,98.046127 
	C568.291138,98.276299 571.218567,98.506470 574.610535,98.773163 
	C574.610535,95.985703 574.399597,93.496460 574.661316,91.057953 
	C575.030457,87.619156 573.594482,86.362114 570.277039,86.097931 
	C563.092529,85.525787 556.355652,86.697647 550.165405,90.467316 
	C547.249756,92.242874 544.408813,94.141281 540.817993,96.443031 
	C540.817993,92.594536 540.817993,89.542923 540.817993,86.306023 
	C536.427795,86.306023 532.556030,86.306023 528.603882,86.306023 
	C528.603882,110.990273 528.603882,135.347000 528.603882,159.595871 
	C532.829163,159.595871 536.705811,159.595871 540.818970,159.595871 
	C540.818970,143.217896 540.914978,127.261818 540.739136,111.308739 
	C540.703430,108.063164 541.767944,106.118736 544.418274,104.393669 
	C550.547485,100.404289 556.930176,97.486053 565.363708,98.046127 
M621.572571,205.250275 
	C621.572571,198.285858 621.572571,191.321442 621.572571,184.388153 
	C613.543762,184.154816 604.995544,179.796448 600.072205,189.688324 
	C597.573669,194.708282 598.229614,203.162506 601.579590,206.767258 
	C606.270996,211.815338 611.583679,210.194092 618.136597,206.826218 
	C616.835632,210.237091 616.437439,213.765259 615.193115,214.094421 
	C610.832581,215.247833 606.180481,215.298859 600.553162,215.880783 
	C601.841980,217.091476 602.898804,218.928955 604.327332,219.288132 
	C613.084534,221.489868 622.093872,219.215195 621.572571,205.250275 
M686.261780,191.952606 
	C682.590393,207.926117 694.369812,213.613358 705.619751,209.920212 
	C708.114197,209.101318 709.793152,207.942505 708.041809,205.036758 
	C695.585449,208.659866 690.400452,206.657089 690.396423,197.934097 
	C696.489197,197.934097 702.587585,197.934097 708.621582,197.934097 
	C709.723267,189.824661 707.226196,185.044815 701.275452,183.381454 
	C695.213379,181.686951 689.655457,184.656326 686.261780,191.952606 
M534.340820,208.283661 
	C539.284241,211.749069 544.643982,211.709946 549.976135,209.663879 
	C551.290649,209.159500 552.032898,207.163956 553.038208,205.853897 
	C539.372498,208.571198 534.527466,206.718292 534.324280,197.792648 
	C540.539001,197.792648 546.751038,197.792648 552.973938,197.792648 
	C553.382202,192.005356 552.736023,187.087067 547.633545,184.289108 
	C543.326965,181.927597 538.892212,182.587936 534.919556,185.284409 
	C528.298401,189.778442 527.776489,201.022614 534.340820,208.283661 
M669.750427,197.552124 
	C669.750427,201.533813 669.750427,205.515488 669.750427,209.657990 
	C671.370972,209.657990 672.715637,209.657990 674.138672,209.657990 
	C674.138672,203.312759 674.353088,197.325394 674.075378,191.360931 
	C673.822571,185.930664 670.448364,182.637802 665.539856,183.040695 
	C661.252869,183.392548 657.021606,184.424316 652.394470,185.219498 
	C652.382263,185.371902 652.261963,186.187912 652.260132,187.004166 
	C652.244934,193.655121 652.326477,200.307297 652.220520,206.956589 
	C652.167786,210.267548 653.770569,210.494003 656.772766,209.450409 
	C656.772766,204.107803 656.716125,198.653183 656.792358,193.200424 
	C656.844727,189.453552 659.769104,187.160034 664.176819,187.033463 
	C668.079712,186.921371 669.479797,189.144287 669.675537,192.597122 
	C669.750793,193.923721 669.728821,195.255859 669.750427,197.552124 
M564.257751,186.077271 
	C564.253967,192.900208 564.344299,199.725067 564.205811,206.545273 
	C564.139038,209.835205 565.343323,210.749786 568.767761,209.404617 
	C568.767761,204.184937 568.728638,198.888733 568.780396,193.593414 
	C568.820312,189.517288 571.728577,187.097000 576.289612,187.033218 
	C580.600525,186.972931 581.649048,189.708649 581.699341,193.218399 
	C581.777588,198.677917 581.720093,204.139359 581.720093,209.797272 
	C583.400208,209.797272 584.661621,209.797272 586.121094,209.797272 
	C586.121094,203.436798 586.332886,197.293182 586.054626,191.171844 
	C585.828186,186.191177 582.807373,183.231094 578.327332,182.981339 
	C573.748779,182.726089 569.588074,186.706085 564.763611,184.405838 
	C564.750000,184.399338 564.476318,184.938202 564.257751,186.077271 
M638.853943,192.565750 
	C637.637207,189.768707 641.744507,184.372040 634.567627,183.894775 
	C634.567627,192.755783 634.567627,201.161545 634.567627,209.540833 
	C637.881226,210.847305 638.987793,209.694473 638.886780,206.511963 
	C638.749756,202.194687 638.853394,197.869766 638.853943,192.565750 
M639.069458,177.495041 
	C637.861816,176.455261 636.654236,175.415466 635.446655,174.375687 
	C635.110535,174.741470 634.774353,175.107254 634.438232,175.473038 
	C634.438232,176.855759 634.438232,178.238480 634.438232,180.883942 
	C636.424988,179.802216 637.738770,179.086868 639.069458,177.495041 
z"/>
<path fill="#05D2FF" opacity="1.000000" stroke="none" 
	d="
M80.940201,165.303528 
	C91.774826,165.156540 102.180946,164.925018 113.211311,164.679611 
	C112.881310,163.954529 113.217018,164.368439 113.245354,164.802414 
	C113.766510,172.784546 113.619362,172.986023 105.686989,173.966156 
	C94.713448,175.322083 83.705635,175.940125 72.958015,172.740005 
	C50.225739,165.971451 37.371712,150.436295 33.447365,127.263908 
	C28.197186,96.262833 46.866024,67.633507 76.932228,60.507366 
	C99.452774,55.169659 123.086227,63.115353 135.028992,80.039803 
	C147.879501,98.250641 148.599884,128.174362 136.439529,146.303162 
	C135.536591,147.649277 133.388748,148.822769 131.761765,148.903030 
	C125.611557,149.206375 119.424438,148.778305 113.276314,149.102066 
	C108.140511,149.372513 103.825745,149.161713 104.156082,141.814377 
	C102.043427,143.201157 100.552849,144.191727 99.050430,145.163986 
	C82.760101,155.706039 65.185181,148.693207 60.880154,129.840530 
	C58.881001,121.085793 58.781239,112.286674 61.897732,103.745270 
	C67.498291,88.395706 82.504013,81.434784 97.878464,86.890770 
	C99.592155,87.498901 101.273613,88.197861 102.959579,88.850655 
	C105.541077,83.741791 110.037735,86.926765 114.157455,85.826660 
	C114.157455,104.638184 114.157455,123.035522 114.157455,141.984055 
	C119.318138,141.984055 123.962685,142.182480 128.568588,141.848297 
	C129.760284,141.761841 131.432495,140.217575 131.866394,138.984772 
	C137.927704,121.763054 138.331787,104.655075 129.341461,88.267242 
	C122.655312,76.079567 111.498390,70.427910 98.099266,68.407135 
	C77.252480,65.263145 57.085304,75.112686 47.725430,93.201363 
	C37.808399,112.366776 40.960835,137.844482 55.128105,152.372757 
	C62.105980,159.528442 70.646370,163.711243 80.940201,165.303528 
M85.672188,139.973129 
	C90.933006,138.230133 96.276413,136.688995 101.393654,134.595108 
	C102.598022,134.102295 103.692741,131.759171 103.725571,130.243164 
	C103.934113,120.611549 103.863632,110.972908 103.782280,101.337440 
	C103.773544,100.303169 103.409637,98.925140 102.693008,98.296486 
	C94.205055,90.850578 77.293648,94.991898 72.971085,105.625954 
	C69.852493,113.298088 70.145638,121.256599 72.175934,129.099091 
	C73.827240,135.477615 77.960121,139.418121 85.672188,139.973129 
z"/>
<path fill="#04D2FF" opacity="1.000000" stroke="none" 
	d="
M291.303223,111.416412 
	C293.556519,111.207710 295.350281,111.040802 297.069550,110.880821 
	C297.863831,102.028610 294.674011,97.474434 286.589325,95.802124 
	C275.431183,93.494072 264.830231,96.158226 253.932526,99.953987 
	C253.932526,95.652420 253.932526,91.634941 253.932526,87.419678 
	C266.346710,84.239807 278.793976,82.536140 291.431641,85.436249 
	C302.657501,88.012383 309.148224,94.451630 309.572327,105.647865 
	C310.250793,123.558823 309.753967,141.514297 309.753967,159.736816 
	C305.875702,159.736816 302.115112,159.736816 297.922028,159.736816 
	C297.683441,157.655090 297.430481,155.448074 297.091309,152.488800 
	C295.037476,153.827576 293.447388,154.911774 291.811768,155.922256 
	C283.421112,161.105957 274.432129,163.423386 264.645905,161.139313 
	C254.946167,158.875412 248.086960,150.954895 247.053864,141.148773 
	C245.887161,130.074448 250.221710,120.963478 260.191528,117.270103 
	C267.708344,114.485458 275.941193,113.602623 283.884644,112.020493 
	C286.151733,111.568947 288.521179,111.631432 291.303223,111.416412 
M297.694519,138.798645 
	C297.694519,133.020935 297.694519,127.243233 297.694519,120.855232 
	C286.793488,122.123093 276.144073,120.963554 266.531891,126.093948 
	C260.683258,129.215591 258.734039,134.102661 260.092316,140.866852 
	C261.092957,145.850006 265.184143,149.231659 271.319427,149.828629 
	C273.953888,150.084991 276.720276,150.300095 279.277130,149.787552 
	C286.419769,148.355759 293.446075,146.465591 297.694519,138.798645 
z"/>
<path fill="#05D2FF" opacity="1.000000" stroke="none" 
	d="
M479.438416,89.464325 
	C491.431580,98.203239 494.484009,110.449219 494.330627,123.981133 
	C494.291290,127.449471 493.939392,130.971054 493.235901,134.365570 
	C489.506409,152.361038 476.719269,162.587601 458.962097,161.973434 
	C441.403229,161.366135 429.100922,150.151062 426.956665,131.813583 
	C426.157837,124.982094 426.089142,117.733925 427.461334,111.039314 
	C432.443115,86.733604 457.026245,76.599510 479.438416,89.464325 
M446.443848,99.883888 
	C436.649536,110.908798 437.679077,123.780586 440.924683,136.578644 
	C443.430542,146.459656 450.790741,151.136154 461.014648,150.973083 
	C470.319824,150.824646 477.173767,145.529572 479.935211,136.183777 
	C482.291718,128.208588 482.391235,120.097908 480.589661,112.030685 
	C476.938965,95.683189 460.906158,89.699570 446.443848,99.883888 
z"/>
<path fill="#03D2FF" opacity="1.000000" stroke="none" 
	d="
M357.004364,85.996056 
	C371.472321,85.996056 385.440918,85.996056 399.587524,85.996056 
	C400.566406,91.222290 399.886932,95.321449 396.412354,99.506355 
	C383.124939,115.510498 370.242767,131.851151 356.637238,148.777878 
	C371.736053,148.777878 386.078918,148.777878 400.732849,148.777878 
	C400.732849,152.705215 400.732849,156.091339 400.732849,159.753113 
	C381.041534,159.753113 361.451141,159.753113 341.568726,159.753113 
	C340.751770,154.591980 340.847229,150.089859 344.687592,145.548599 
	C357.914948,129.907150 370.692871,113.885651 384.270233,97.238663 
	C369.889648,97.238663 356.254395,97.238663 342.351807,97.238663 
	C342.351807,93.329445 342.351807,90.060287 342.351807,85.996056 
	C346.996307,85.996056 351.750641,85.996056 357.004364,85.996056 
z"/>
<path fill="#0BD3FF" opacity="1.000000" stroke="none" 
	d="
M183.255585,90.245056 
	C182.941910,87.175331 183.638885,85.675552 186.714081,85.931580 
	C189.501251,86.163628 192.322983,85.980629 195.608246,85.980629 
	C195.608246,89.382202 195.608246,92.462120 195.608246,97.069672 
	C206.116791,88.670311 216.582169,83.575722 229.300232,87.022057 
	C229.300232,91.117706 229.300232,94.873978 229.300232,99.087463 
	C218.474228,96.841209 208.546875,97.816650 199.521133,104.272072 
	C196.776062,106.235397 195.696457,108.274963 195.738571,111.645325 
	C195.917252,125.947945 195.814285,140.254074 195.814224,154.558914 
	C195.814224,156.184723 195.814224,157.810532 195.814224,159.734589 
	C191.611160,159.734589 187.854797,159.734589 183.255264,159.734589 
	C183.255264,136.766403 183.255264,113.741211 183.255585,90.245056 
z"/>
<path fill="#0BD3FF" opacity="1.000000" stroke="none" 
	d="
M564.912231,98.044014 
	C556.930176,97.486053 550.547485,100.404289 544.418274,104.393669 
	C541.767944,106.118736 540.703430,108.063164 540.739136,111.308739 
	C540.914978,127.261818 540.818970,143.217896 540.818970,159.595871 
	C536.705811,159.595871 532.829163,159.595871 528.603882,159.595871 
	C528.603882,135.347000 528.603882,110.990273 528.603882,86.306023 
	C532.556030,86.306023 536.427795,86.306023 540.817993,86.306023 
	C540.817993,89.542923 540.817993,92.594536 540.817993,96.443031 
	C544.408813,94.141281 547.249756,92.242874 550.165405,90.467316 
	C556.355652,86.697647 563.092529,85.525787 570.277039,86.097931 
	C573.594482,86.362114 575.030457,87.619156 574.661316,91.057953 
	C574.399597,93.496460 574.610535,95.985703 574.610535,98.773163 
	C571.218567,98.506470 568.291138,98.276299 564.912231,98.044014 
z"/>
<path fill="#0BD3FF" opacity="1.000000" stroke="none" 
	d="
M621.571838,205.711899 
	C622.093872,219.215195 613.084534,221.489868 604.327332,219.288132 
	C602.898804,218.928955 601.841980,217.091476 600.553162,215.880783 
	C606.180481,215.298859 610.832581,215.247833 615.193115,214.094421 
	C616.437439,213.765259 616.835632,210.237091 618.136597,206.826218 
	C611.583679,210.194092 606.270996,211.815338 601.579590,206.767258 
	C598.229614,203.162506 597.573669,194.708282 600.072205,189.688324 
	C604.995544,179.796448 613.543762,184.154816 621.572571,184.388153 
	C621.572571,191.321442 621.572571,198.285858 621.571838,205.711899 
M603.069763,197.408768 
	C603.191467,201.027893 603.580750,205.133987 607.809265,205.597961 
	C610.701721,205.915329 616.186646,204.434097 616.437683,203.029053 
	C617.295715,198.225403 616.398743,193.096344 615.999329,188.105194 
	C615.970825,187.749557 614.573792,187.410934 613.775757,187.224075 
	C607.346008,185.718475 603.758972,188.864456 603.069763,197.408768 
z"/>
<path fill="#08D3FF" opacity="1.000000" stroke="none" 
	d="
M686.411255,191.597748 
	C689.655457,184.656326 695.213379,181.686951 701.275452,183.381454 
	C707.226196,185.044815 709.723267,189.824661 708.621582,197.934097 
	C702.587585,197.934097 696.489197,197.934097 690.396423,197.934097 
	C690.400452,206.657089 695.585449,208.659866 708.041809,205.036758 
	C709.793152,207.942505 708.114197,209.101318 705.619751,209.920212 
	C694.369812,213.613358 682.590393,207.926117 686.411255,191.597748 
M690.266724,192.118057 
	C690.588684,192.727570 690.896973,193.858871 691.234741,193.867737 
	C695.742249,193.985687 700.253845,193.946579 704.764465,193.946579 
	C705.066711,193.386902 705.368958,192.827209 705.671204,192.267532 
	C703.839050,190.550690 702.274658,187.982880 700.115967,187.303467 
	C696.248718,186.086288 692.589600,187.279465 690.266724,192.118057 
z"/>
<path fill="#08D3FF" opacity="1.000000" stroke="none" 
	d="
M534.040649,208.057816 
	C527.776489,201.022614 528.298401,189.778442 534.919556,185.284409 
	C538.892212,182.587936 543.326965,181.927597 547.633545,184.289108 
	C552.736023,187.087067 553.382202,192.005356 552.973938,197.792648 
	C546.751038,197.792648 540.539001,197.792648 534.324280,197.792648 
	C534.527466,206.718292 539.372498,208.571198 553.038208,205.853897 
	C552.032898,207.163956 551.290649,209.159500 549.976135,209.663879 
	C544.643982,211.709946 539.284241,211.749069 534.040649,208.057816 
M538.445923,187.469299 
	C536.817627,189.272232 535.189270,191.075165 532.732056,193.795898 
	C539.113403,193.795898 543.844360,193.795898 548.585083,193.795898 
	C548.193054,187.770187 546.653687,186.711823 538.445923,187.469299 
z"/>
<path fill="#17D5FF" opacity="1.000000" stroke="none" 
	d="
M669.750732,197.068787 
	C669.728821,195.255859 669.750793,193.923721 669.675537,192.597122 
	C669.479797,189.144287 668.079712,186.921371 664.176819,187.033463 
	C659.769104,187.160034 656.844727,189.453552 656.792358,193.200424 
	C656.716125,198.653183 656.772766,204.107803 656.772766,209.450409 
	C653.770569,210.494003 652.167786,210.267548 652.220520,206.956589 
	C652.326477,200.307297 652.244934,193.655121 652.260132,187.004166 
	C652.261963,186.187912 652.382263,185.371902 652.394470,185.219498 
	C657.021606,184.424316 661.252869,183.392548 665.539856,183.040695 
	C670.448364,182.637802 673.822571,185.930664 674.075378,191.360931 
	C674.353088,197.325394 674.138672,203.312759 674.138672,209.657990 
	C672.715637,209.657990 671.370972,209.657990 669.750427,209.657990 
	C669.750427,205.515488 669.750427,201.533813 669.750732,197.068787 
z"/>
<path fill="#17D5FF" opacity="1.000000" stroke="none" 
	d="
M564.290894,185.649811 
	C564.476318,184.938202 564.750000,184.399338 564.763611,184.405838 
	C569.588074,186.706085 573.748779,182.726089 578.327332,182.981339 
	C582.807373,183.231094 585.828186,186.191177 586.054626,191.171844 
	C586.332886,197.293182 586.121094,203.436798 586.121094,209.797272 
	C584.661621,209.797272 583.400208,209.797272 581.720093,209.797272 
	C581.720093,204.139359 581.777588,198.677917 581.699341,193.218399 
	C581.649048,189.708649 580.600525,186.972931 576.289612,187.033218 
	C571.728577,187.097000 568.820312,189.517288 568.780396,193.593414 
	C568.728638,198.888733 568.767761,204.184937 568.767761,209.404617 
	C565.343323,210.749786 564.139038,209.835205 564.205811,206.545273 
	C564.344299,199.725067 564.253967,192.900208 564.290894,185.649811 
z"/>
<path fill="#32D8FF" opacity="1.000000" stroke="none" 
	d="
M638.853882,193.056946 
	C638.853394,197.869766 638.749756,202.194687 638.886780,206.511963 
	C638.987793,209.694473 637.881226,210.847305 634.567627,209.540833 
	C634.567627,201.161545 634.567627,192.755783 634.567627,183.894775 
	C641.744507,184.372040 637.637207,189.768707 638.853882,193.056946 
z"/>
<path fill="#0BD3FF" opacity="1.000000" stroke="none" 
	d="
M639.061035,177.933289 
	C637.738770,179.086868 636.424988,179.802216 634.438232,180.883942 
	C634.438232,178.238480 634.438232,176.855759 634.438232,175.473038 
	C634.774353,175.107254 635.110535,174.741470 635.446655,174.375687 
	C636.654236,175.415466 637.861816,176.455261 639.061035,177.933289 
z"/>
<path fill="#FBFEFF" opacity="1.000000" stroke="none" 
	d="
M85.247009,139.961731 
	C77.960121,139.418121 73.827240,135.477615 72.175934,129.099091 
	C70.145638,121.256599 69.852493,113.298088 72.971085,105.625954 
	C77.293648,94.991898 94.205055,90.850578 102.693008,98.296486 
	C103.409637,98.925140 103.773544,100.303169 103.782280,101.337440 
	C103.863632,110.972908 103.934113,120.611549 103.725571,130.243164 
	C103.692741,131.759171 102.598022,134.102295 101.393654,134.595108 
	C96.276413,136.688995 90.933006,138.230133 85.247009,139.961731 
z"/>
<path fill="#F9FEFF" opacity="1.000000" stroke="none" 
	d="
M297.685242,139.222260 
	C293.446075,146.465591 286.419769,148.355759 279.277130,149.787552 
	C276.720276,150.300095 273.953888,150.084991 271.319427,149.828629 
	C265.184143,149.231659 261.092957,145.850006 260.092316,140.866852 
	C258.734039,134.102661 260.683258,129.215591 266.531891,126.093948 
	C276.144073,120.963554 286.793488,122.123093 297.694519,120.855232 
	C297.694519,127.243233 297.694519,133.020935 297.685242,139.222260 
z"/>
<path fill="#FCFEFF" opacity="1.000000" stroke="none" 
	d="
M446.713196,99.632446 
	C460.906158,89.699570 476.938965,95.683189 480.589661,112.030685 
	C482.391235,120.097908 482.291718,128.208588 479.935211,136.183777 
	C477.173767,145.529572 470.319824,150.824646 461.014648,150.973083 
	C450.790741,151.136154 443.430542,146.459656 440.924683,136.578644 
	C437.679077,123.780586 436.649536,110.908798 446.713196,99.632446 
z"/>
<path fill="#FBFEFF" opacity="1.000000" stroke="none" 
	d="
M603.069824,196.991425 
	C603.758972,188.864456 607.346008,185.718475 613.775757,187.224075 
	C614.573792,187.410934 615.970825,187.749557 615.999329,188.105194 
	C616.398743,193.096344 617.295715,198.225403 616.437683,203.029053 
	C616.186646,204.434097 610.701721,205.915329 607.809265,205.597961 
	C603.580750,205.133987 603.191467,201.027893 603.069824,196.991425 
z"/>
<path fill="#F9FEFF" opacity="1.000000" stroke="none" 
	d="
M690.424072,191.748077 
	C692.589600,187.279465 696.248718,186.086288 700.115967,187.303467 
	C702.274658,187.982880 703.839050,190.550690 705.671204,192.267532 
	C705.368958,192.827209 705.066711,193.386902 704.764465,193.946579 
	C700.253845,193.946579 695.742249,193.985687 691.234741,193.867737 
	C690.896973,193.858871 690.588684,192.727570 690.424072,191.748077 
z"/>
<path fill="#F9FEFF" opacity="1.000000" stroke="none" 
	d="
M538.827698,187.343613 
	C546.653687,186.711823 548.193054,187.770187 548.585083,193.795898 
	C543.844360,193.795898 539.113403,193.795898 532.732056,193.795898 
	C535.189270,191.075165 536.817627,189.272232 538.827698,187.343613 
z"/>
</svg>